<svg width="38" height="40" viewBox="0 0 38 40" fill="none" xmlns="http://www.w3.org/2000/svg">
<g id="arcticons:shopeepay">
<path id="Vector" d="M8.47323 11.2134H30.8996C32.2731 11.2134 33.6459 12.6584 33.6459 14.1034V30.9667C33.6459 32.4117 32.2731 33.8575 30.8996 33.8575H7.10127C5.72773 33.8575 4.35498 32.4117 4.35498 30.9659V11.2134C4.35498 8.80502 4.81256 8.08252 6.6429 8.08252L26.3237 6.15502C27.9253 6.05919 28.1549 6.63669 28.1549 7.36002V11.2142" stroke="#08080A" stroke-width="2" stroke-linecap="round" stroke-linejoin="round"/>
<path id="Vector_2" d="M14.9071 28.3625C15.964 29.1958 17.0201 29.4741 19.1323 29.4741H20.1883C21.0987 29.4741 21.9719 29.0935 22.6156 28.4158C23.2594 27.7382 23.621 26.8191 23.621 25.8608C23.621 24.9025 23.2594 23.9834 22.6156 23.3058C21.9719 22.6282 21.0987 22.2475 20.1883 22.2475H17.8125C16.9021 22.2475 16.029 21.8668 15.3853 21.1892C14.7415 20.5115 14.3799 19.5925 14.3799 18.6341C14.3799 17.6758 14.7415 16.7568 15.3853 16.0791C16.029 15.4015 16.9021 15.0208 17.8125 15.0208H18.8694C21.2452 15.0208 22.3013 15.2991 23.0938 16.1325" stroke="#08080A" stroke-width="2" stroke-linecap="round" stroke-linejoin="round"/>
</g>
</svg>
