<svg width="19" height="19" viewBox="0 0 19 19" fill="none" xmlns="http://www.w3.org/2000/svg">
<path id="Vector" d="M11.4143 1L13.5353 3.121M13.5353 3.121L14.9483 1.707C15.1358 1.51953 15.3901 1.41421 15.6553 1.41421C15.9204 1.41421 16.1747 1.51953 16.3623 1.707L17.0703 2.414C17.2577 2.60153 17.3631 2.85584 17.3631 3.121C17.3631 3.38616 17.2577 3.64047 17.0703 3.828L15.6553 5.243M13.5353 3.121L15.6553 5.243M17.7783 7.364L15.6553 5.243M11.4143 5.243L13.5353 7.363C13.6282 7.45587 13.702 7.56616 13.7523 7.68756C13.8027 7.80896 13.8286 7.93908 13.8286 8.0705C13.8286 8.20192 13.8027 8.33204 13.7523 8.45344C13.702 8.57484 13.6282 8.68513 13.5353 8.778L5.89827 16.416C5.80504 16.5095 5.69425 16.5835 5.57227 16.634L3.07527 17.66C1.84227 18.168 0.609273 16.935 1.11727 15.702L2.14527 13.206C2.19557 13.0836 2.26967 12.9725 2.36327 12.879L9.99927 5.243C10.0921 5.15002 10.2024 5.07626 10.3238 5.02594C10.4452 4.97562 10.5754 4.94971 10.7068 4.94971C10.8382 4.94971 10.9683 4.97562 11.0897 5.02594C11.2111 5.07626 11.3214 5.15002 11.4143 5.243Z" stroke="black" stroke-opacity="0.6" stroke-width="1.5" stroke-linecap="round" stroke-linejoin="round"/>
</svg>
